{
	"asset":{
		"generator":"Khronos glTF Blender I/O v4.5.47",
		"version":"2.0"
	},
	"scene":0,
	"scenes":[
		{
			"name":"Scene",
			"nodes":[
				0,
				1,
				2,
				3,
				4
			]
		}
	],
	"nodes":[
		{
			"mesh":0,
			"name":"2nd_walls",
			"scale":[
				2.4000000953674316,
				2.4000000953674316,
				2.4000000953674316
			],
			"translation":[
				-1.3881131410598755,
				-3.356025457382202,
				-5.9213361740112305
			]
		},
		{
			"mesh":1,
			"name":"ext_1st_walls",
			"scale":[
				2.4000000953674316,
				2.4000000953674316,
				2.4000000953674316
			],
			"translation":[
				-1.3881131410598755,
				-0.3560252785682678,
				-5.9213361740112305
			]
		},
		{
			"mesh":2,
			"name":"int_1st_walls-col",
			"scale":[
				2.4000000953674316,
				2.4000000953674316,
				2.4000000953674316
			],
			"translation":[
				-1.3881131410598755,
				-0.3560252785682678,
				-5.9213361740112305
			]
		},
		{
			"mesh":3,
			"name":"Stairs",
			"scale":[
				2.4000000953674316,
				2.4000000953674316,
				2.4000000953674316
			],
			"translation":[
				-2.6681041717529297,
				4.7473039627075195,
				-5.9213361740112305
			]
		},
		{
			"mesh":4,
			"name":"Stairs.001",
			"scale":[
				2.4000000953674316,
				2.4000000953674316,
				2.4000000953674316
			],
			"translation":[
				-2.6681041717529297,
				4.7473039627075195,
				51.34840774536133
			]
		}
	],
	"materials":[
		{
			"doubleSided":true,
			"name":"Concrete",
			"pbrMetallicRoughness":{
				"baseColorTexture":{
					"index":0
				},
				"metallicFactor":0,
				"roughnessFactor":0.5
			}
		},
		{
			"doubleSided":true,
			"name":"drag_brick",
			"pbrMetallicRoughness":{
				"baseColorTexture":{
					"index":1
				},
				"metallicFactor":0,
				"roughnessFactor":0.5
			}
		},
		{
			"doubleSided":true,
			"name":"tiles1",
			"pbrMetallicRoughness":{
				"baseColorTexture":{
					"index":2
				},
				"metallicFactor":0
			}
		},
		{
			"doubleSided":true,
			"name":"oak_stagged",
			"pbrMetallicRoughness":{
				"baseColorTexture":{
					"index":3
				},
				"metallicFactor":0,
				"roughnessFactor":0.5
			}
		},
		{
			"doubleSided":true,
			"name":"limestone_staggered",
			"pbrMetallicRoughness":{
				"baseColorTexture":{
					"index":4
				},
				"metallicFactor":0
			}
		},
		{
			"doubleSided":true,
			"name":"Wood_slabs",
			"pbrMetallicRoughness":{
				"baseColorTexture":{
					"index":5
				},
				"metallicFactor":0
			}
		},
		{
			"doubleSided":true,
			"name":"grass",
			"pbrMetallicRoughness":{
				"baseColorTexture":{
					"index":6
				},
				"metallicFactor":0
			}
		},
		{
			"doubleSided":true,
			"name":"wood1",
			"pbrMetallicRoughness":{
				"baseColorTexture":{
					"index":7
				},
				"metallicFactor":0
			}
		},
		{
			"doubleSided":true,
			"name":"tiles",
			"pbrMetallicRoughness":{
				"baseColorTexture":{
					"index":8
				},
				"metallicFactor":0
			}
		}
	],
	"meshes":[
		{
			"name":"Vert.003",
			"primitives":[
				{
					"attributes":{
						"POSITION":0,
						"NORMAL":1
					},
					"indices":2
				}
			]
		},
		{
			"name":"Vert.005",
			"primitives":[
				{
					"attributes":{
						"POSITION":3,
						"NORMAL":4,
						"TEXCOORD_0":5,
						"TANGENT":6
					},
					"indices":7,
					"material":0
				},
				{
					"attributes":{
						"POSITION":8,
						"NORMAL":9,
						"TEXCOORD_0":10,
						"TANGENT":11
					},
					"indices":12,
					"material":1
				},
				{
					"attributes":{
						"POSITION":13,
						"NORMAL":14,
						"TEXCOORD_0":15,
						"TANGENT":16
					},
					"indices":17,
					"material":0
				},
				{
					"attributes":{
						"POSITION":18,
						"NORMAL":19,
						"TEXCOORD_0":20,
						"TANGENT":21
					},
					"indices":22,
					"material":2
				},
				{
					"attributes":{
						"POSITION":23,
						"NORMAL":24,
						"TEXCOORD_0":25,
						"TANGENT":26
					},
					"indices":27,
					"material":3
				}
			]
		},
		{
			"name":"Vert.001",
			"primitives":[
				{
					"attributes":{
						"POSITION":28,
						"NORMAL":29,
						"TEXCOORD_0":30
					},
					"indices":31,
					"material":4
				},
				{
					"attributes":{
						"POSITION":32,
						"NORMAL":33,
						"TEXCOORD_0":34
					},
					"indices":35,
					"material":2
				},
				{
					"attributes":{
						"POSITION":36,
						"NORMAL":37,
						"TEXCOORD_0":38
					},
					"indices":39,
					"material":5
				},
				{
					"attributes":{
						"POSITION":40,
						"NORMAL":41,
						"TEXCOORD_0":42
					},
					"indices":43,
					"material":6
				},
				{
					"attributes":{
						"POSITION":44,
						"NORMAL":45,
						"TEXCOORD_0":46
					},
					"indices":47,
					"material":7
				},
				{
					"attributes":{
						"POSITION":48,
						"NORMAL":49,
						"TEXCOORD_0":50
					},
					"indices":51,
					"material":8
				}
			]
		},
		{
			"name":"Vert.002",
			"primitives":[
				{
					"attributes":{
						"POSITION":52,
						"NORMAL":53,
						"TEXCOORD_0":54
					},
					"indices":55,
					"material":2
				}
			]
		},
		{
			"name":"Vert.004",
			"primitives":[
				{
					"attributes":{
						"POSITION":56,
						"NORMAL":57,
						"TEXCOORD_0":58
					},
					"indices":55,
					"material":2
				}
			]
		}
	],
	"textures":[
		{
			"sampler":0,
			"source":0
		},
		{
			"sampler":0,
			"source":1
		},
		{
			"sampler":0,
			"source":2
		},
		{
			"sampler":0,
			"source":3
		},
		{
			"sampler":0,
			"source":4
		},
		{
			"sampler":0,
			"source":5
		},
		{
			"sampler":0,
			"source":6
		},
		{
			"sampler":0,
			"source":7
		},
		{
			"sampler":0,
			"source":8
		}
	],
	"images":[
		{
			"mimeType":"image/jpeg",
			"name":"Low_in-situ-concrete.jpg",
			"uri":"../../assets/FinalUniversity/resources/Low_in-situ-concrete.jpg"
		},
		{
			"mimeType":"image/jpeg",
			"name":"Low_even-drag-brick-staggered.jpg",
			"uri":"../../assets/FinalUniversity/resources/Low_even-drag-brick-staggered.jpg"
		},
		{
			"mimeType":"image/jpeg",
			"name":"Low_Polished_slabs.jpg",
			"uri":"../../assets/FinalUniversity/resources/Low_Polished_slabs.jpg"
		},
		{
			"mimeType":"image/jpeg",
			"name":"Low_oak-staggered.jpg",
			"uri":"../../assets/FinalUniversity/resources/Low_oak-staggered.jpg"
		},
		{
			"mimeType":"image/jpeg",
			"name":"Low_limestone-staggered.jpg",
			"uri":"../../assets/FinalUniversity/resources/Low_limestone-staggered.jpg"
		},
		{
			"mimeType":"image/png",
			"name":"Low_Wood.png",
			"uri":"../../assets/FinalUniversity/resources/Low_Wood.png"
		},
		{
			"mimeType":"image/jpeg",
			"name":"Low_grass.jpg",
			"uri":"../../assets/FinalUniversity/resources/Low_grass.jpg"
		},
		{
			"mimeType":"image/jpeg",
			"name":"Low_wood2.jpg",
			"uri":"../../assets/FinalUniversity/resources/Low_wood2.jpg"
		},
		{
			"mimeType":"image/jpeg",
			"name":"Low_tiles.jpg",
			"uri":"../../assets/FinalUniversity/resources/Low_tiles.jpg"
		}
	],
	"accessors":[
		{
			"bufferView":0,
			"componentType":5126,
			"count":472,
			"max":[
				-20.605754852294922,
				4.742453575134277,
				40.203514099121094
			],
			"min":[
				-41.38467788696289,
				3,
				13.578893661499023
			],
			"type":"VEC3"
		},
		{
			"bufferView":1,
			"componentType":5126,
			"count":472,
			"type":"VEC3"
		},
		{
			"bufferView":2,
			"componentType":5123,
			"count":1122,
			"type":"SCALAR"
		},
		{
			"bufferView":3,
			"componentType":5126,
			"count":450,
			"max":[
				0.20000000298023224,
				1.75,
				45.331993103027344
			],
			"min":[
				-32.08332061767578,
				-0.0024538636207580566,
				0
			],
			"type":"VEC3"
		},
		{
			"bufferView":4,
			"componentType":5126,
			"count":450,
			"type":"VEC3"
		},
		{
			"bufferView":5,
			"componentType":5126,
			"count":450,
			"type":"VEC2"
		},
		{
			"bufferView":6,
			"componentType":5126,
			"count":450,
			"type":"VEC4"
		},
		{
			"bufferView":7,
			"componentType":5123,
			"count":1056,
			"type":"SCALAR"
		},
		{
			"bufferView":8,
			"componentType":5126,
			"count":4,
			"max":[
				-21.691003799438477,
				1.75,
				34.54256820678711
			],
			"min":[
				-21.691003799438477,
				-0.0024538636207580566,
				19.724775314331055
			],
			"type":"VEC3"
		},
		{
			"bufferView":9,
			"componentType":5126,
			"count":4,
			"type":"VEC3"
		},
		{
			"bufferView":10,
			"componentType":5126,
			"count":4,
			"type":"VEC2"
		},
		{
			"bufferView":11,
			"componentType":5126,
			"count":4,
			"type":"VEC4"
		},
		{
			"bufferView":12,
			"componentType":5123,
			"count":6,
			"type":"SCALAR"
		},
		{
			"bufferView":13,
			"componentType":5126,
			"count":8,
			"max":[
				-21.691003799438477,
				1.75,
				34.54256820678711
			],
			"min":[
				-32.08332061767578,
				-0.0024538636207580566,
				19.674457550048828
			],
			"type":"VEC3"
		},
		{
			"bufferView":14,
			"componentType":5126,
			"count":8,
			"type":"VEC3"
		},
		{
			"bufferView":15,
			"componentType":5126,
			"count":8,
			"type":"VEC2"
		},
		{
			"bufferView":16,
			"componentType":5126,
			"count":8,
			"type":"VEC4"
		},
		{
			"bufferView":17,
			"componentType":5123,
			"count":12,
			"type":"SCALAR"
		},
		{
			"bufferView":18,
			"componentType":5126,
			"count":12,
			"max":[
				-21.691003799438477,
				1.75,
				37.460025787353516
			],
			"min":[
				-32.08332061767578,
				-0.0024538636207580566,
				34.74256896972656
			],
			"type":"VEC3"
		},
		{
			"bufferView":19,
			"componentType":5126,
			"count":12,
			"type":"VEC3"
		},
		{
			"bufferView":20,
			"componentType":5126,
			"count":12,
			"type":"VEC2"
		},
		{
			"bufferView":21,
			"componentType":5126,
			"count":12,
			"type":"VEC4"
		},
		{
			"bufferView":22,
			"componentType":5123,
			"count":18,
			"type":"SCALAR"
		},
		{
			"bufferView":23,
			"componentType":5126,
			"count":10,
			"max":[
				0,
				1.75,
				16.446683883666992
			],
			"min":[
				-1.0209248065948486,
				-0.0024538636207580566,
				11.334471702575684
			],
			"type":"VEC3"
		},
		{
			"bufferView":24,
			"componentType":5126,
			"count":10,
			"type":"VEC3"
		},
		{
			"bufferView":25,
			"componentType":5126,
			"count":10,
			"type":"VEC2"
		},
		{
			"bufferView":26,
			"componentType":5126,
			"count":10,
			"type":"VEC4"
		},
		{
			"bufferView":27,
			"componentType":5123,
			"count":18,
			"type":"SCALAR"
		},
		{
			"bufferView":28,
			"componentType":5126,
			"count":590,
			"max":[
				5.960464477539063e-08,
				1.7499998807907104,
				40.66177749633789
			],
			"min":[
				-20.40575408935547,
				1.4901161193847656e-08,
				0.20000003278255463
			],
			"type":"VEC3"
		},
		{
			"bufferView":29,
			"componentType":5126,
			"count":590,
			"type":"VEC3"
		},
		{
			"bufferView":30,
			"componentType":5126,
			"count":590,
			"type":"VEC2"
		},
		{
			"bufferView":31,
			"componentType":5123,
			"count":1380,
			"type":"SCALAR"
		},
		{
			"bufferView":32,
			"componentType":5126,
			"count":20,
			"max":[
				0.1929425746202469,
				0,
				16.646682739257812
			],
			"min":[
				-32.083316802978516,
				0,
				2.384185791015625e-07
			],
			"type":"VEC3"
		},
		{
			"bufferView":33,
			"componentType":5126,
			"count":20,
			"type":"VEC3"
		},
		{
			"bufferView":34,
			"componentType":5126,
			"count":20,
			"type":"VEC2"
		},
		{
			"bufferView":35,
			"componentType":5123,
			"count":48,
			"type":"SCALAR"
		},
		{
			"bufferView":36,
			"componentType":5126,
			"count":9,
			"max":[
				-0.820924699306488,
				0,
				40.66177749633789
			],
			"min":[
				-32.083316802978516,
				0,
				19.524770736694336
			],
			"type":"VEC3"
		},
		{
			"bufferView":37,
			"componentType":5126,
			"count":9,
			"type":"VEC3"
		},
		{
			"bufferView":38,
			"componentType":5126,
			"count":9,
			"type":"VEC2"
		},
		{
			"bufferView":39,
			"componentType":5123,
			"count":15,
			"type":"SCALAR"
		},
		{
			"bufferView":40,
			"componentType":5126,
			"count":18,
			"max":[
				-0.820924699306488,
				0,
				37.56002426147461
			],
			"min":[
				-32.083316802978516,
				0,
				7.8190717697143555
			],
			"type":"VEC3"
		},
		{
			"bufferView":41,
			"componentType":5126,
			"count":18,
			"type":"VEC3"
		},
		{
			"bufferView":42,
			"componentType":5126,
			"count":18,
			"type":"VEC2"
		},
		{
			"bufferView":43,
			"componentType":5123,
			"count":30,
			"type":"SCALAR"
		},
		{
			"bufferView":44,
			"componentType":5126,
			"count":26,
			"max":[
				0.1952950656414032,
				0,
				45.33198928833008
			],
			"min":[
				-32.08331298828125,
				0,
				2.9119701385498047
			],
			"type":"VEC3"
		},
		{
			"bufferView":45,
			"componentType":5126,
			"count":26,
			"type":"VEC3"
		},
		{
			"bufferView":46,
			"componentType":5126,
			"count":26,
			"type":"VEC2"
		},
		{
			"bufferView":47,
			"componentType":5123,
			"count":66,
			"type":"SCALAR"
		},
		{
			"bufferView":48,
			"componentType":5126,
			"count":9,
			"max":[
				0.20000004768371582,
				0,
				14.075139999389648
			],
			"min":[
				-20.60575294494629,
				0,
				2.384185791015625e-07
			],
			"type":"VEC3"
		},
		{
			"bufferView":49,
			"componentType":5126,
			"count":9,
			"type":"VEC3"
		},
		{
			"bufferView":50,
			"componentType":5126,
			"count":9,
			"type":"VEC2"
		},
		{
			"bufferView":51,
			"componentType":5123,
			"count":15,
			"type":"SCALAR"
		},
		{
			"bufferView":52,
			"componentType":5126,
			"count":286,
			"max":[
				-21.999988555908203,
				-0.376387357711792,
				16.141122817993164
			],
			"min":[
				-31.749988555908203,
				-2.126387119293213,
				14.213507652282715
			],
			"type":"VEC3"
		},
		{
			"bufferView":53,
			"componentType":5126,
			"count":286,
			"type":"VEC3"
		},
		{
			"bufferView":54,
			"componentType":5126,
			"count":286,
			"type":"VEC2"
		},
		{
			"bufferView":55,
			"componentType":5123,
			"count":624,
			"type":"SCALAR"
		},
		{
			"bufferView":56,
			"componentType":5126,
			"count":286,
			"max":[
				-21.999988555908203,
				-0.376387357711792,
				16.141122817993164
			],
			"min":[
				-31.749988555908203,
				-2.126387119293213,
				14.213507652282715
			],
			"type":"VEC3"
		},
		{
			"bufferView":57,
			"componentType":5126,
			"count":286,
			"type":"VEC3"
		},
		{
			"bufferView":58,
			"componentType":5126,
			"count":286,
			"type":"VEC2"
		}
	],
	"bufferViews":[
		{
			"buffer":0,
			"byteLength":5664,
			"byteOffset":0,
			"target":34962
		},
		{
			"buffer":0,
			"byteLength":5664,
			"byteOffset":5664,
			"target":34962
		},
		{
			"buffer":0,
			"byteLength":2244,
			"byteOffset":11328,
			"target":34963
		},
		{
			"buffer":0,
			"byteLength":5400,
			"byteOffset":13572,
			"target":34962
		},
		{
			"buffer":0,
			"byteLength":5400,
			"byteOffset":18972,
			"target":34962
		},
		{
			"buffer":0,
			"byteLength":3600,
			"byteOffset":24372,
			"target":34962
		},
		{
			"buffer":0,
			"byteLength":7200,
			"byteOffset":27972,
			"target":34962
		},
		{
			"buffer":0,
			"byteLength":2112,
			"byteOffset":35172,
			"target":34963
		},
		{
			"buffer":0,
			"byteLength":48,
			"byteOffset":37284,
			"target":34962
		},
		{
			"buffer":0,
			"byteLength":48,
			"byteOffset":37332,
			"target":34962
		},
		{
			"buffer":0,
			"byteLength":32,
			"byteOffset":37380,
			"target":34962
		},
		{
			"buffer":0,
			"byteLength":64,
			"byteOffset":37412,
			"target":34962
		},
		{
			"buffer":0,
			"byteLength":12,
			"byteOffset":37476,
			"target":34963
		},
		{
			"buffer":0,
			"byteLength":96,
			"byteOffset":37488,
			"target":34962
		},
		{
			"buffer":0,
			"byteLength":96,
			"byteOffset":37584,
			"target":34962
		},
		{
			"buffer":0,
			"byteLength":64,
			"byteOffset":37680,
			"target":34962
		},
		{
			"buffer":0,
			"byteLength":128,
			"byteOffset":37744,
			"target":34962
		},
		{
			"buffer":0,
			"byteLength":24,
			"byteOffset":37872,
			"target":34963
		},
		{
			"buffer":0,
			"byteLength":144,
			"byteOffset":37896,
			"target":34962
		},
		{
			"buffer":0,
			"byteLength":144,
			"byteOffset":38040,
			"target":34962
		},
		{
			"buffer":0,
			"byteLength":96,
			"byteOffset":38184,
			"target":34962
		},
		{
			"buffer":0,
			"byteLength":192,
			"byteOffset":38280,
			"target":34962
		},
		{
			"buffer":0,
			"byteLength":36,
			"byteOffset":38472,
			"target":34963
		},
		{
			"buffer":0,
			"byteLength":120,
			"byteOffset":38508,
			"target":34962
		},
		{
			"buffer":0,
			"byteLength":120,
			"byteOffset":38628,
			"target":34962
		},
		{
			"buffer":0,
			"byteLength":80,
			"byteOffset":38748,
			"target":34962
		},
		{
			"buffer":0,
			"byteLength":160,
			"byteOffset":38828,
			"target":34962
		},
		{
			"buffer":0,
			"byteLength":36,
			"byteOffset":38988,
			"target":34963
		},
		{
			"buffer":0,
			"byteLength":7080,
			"byteOffset":39024,
			"target":34962
		},
		{
			"buffer":0,
			"byteLength":7080,
			"byteOffset":46104,
			"target":34962
		},
		{
			"buffer":0,
			"byteLength":4720,
			"byteOffset":53184,
			"target":34962
		},
		{
			"buffer":0,
			"byteLength":2760,
			"byteOffset":57904,
			"target":34963
		},
		{
			"buffer":0,
			"byteLength":240,
			"byteOffset":60664,
			"target":34962
		},
		{
			"buffer":0,
			"byteLength":240,
			"byteOffset":60904,
			"target":34962
		},
		{
			"buffer":0,
			"byteLength":160,
			"byteOffset":61144,
			"target":34962
		},
		{
			"buffer":0,
			"byteLength":96,
			"byteOffset":61304,
			"target":34963
		},
		{
			"buffer":0,
			"byteLength":108,
			"byteOffset":61400,
			"target":34962
		},
		{
			"buffer":0,
			"byteLength":108,
			"byteOffset":61508,
			"target":34962
		},
		{
			"buffer":0,
			"byteLength":72,
			"byteOffset":61616,
			"target":34962
		},
		{
			"buffer":0,
			"byteLength":30,
			"byteOffset":61688,
			"target":34963
		},
		{
			"buffer":0,
			"byteLength":216,
			"byteOffset":61720,
			"target":34962
		},
		{
			"buffer":0,
			"byteLength":216,
			"byteOffset":61936,
			"target":34962
		},
		{
			"buffer":0,
			"byteLength":144,
			"byteOffset":62152,
			"target":34962
		},
		{
			"buffer":0,
			"byteLength":60,
			"byteOffset":62296,
			"target":34963
		},
		{
			"buffer":0,
			"byteLength":312,
			"byteOffset":62356,
			"target":34962
		},
		{
			"buffer":0,
			"byteLength":312,
			"byteOffset":62668,
			"target":34962
		},
		{
			"buffer":0,
			"byteLength":208,
			"byteOffset":62980,
			"target":34962
		},
		{
			"buffer":0,
			"byteLength":132,
			"byteOffset":63188,
			"target":34963
		},
		{
			"buffer":0,
			"byteLength":108,
			"byteOffset":63320,
			"target":34962
		},
		{
			"buffer":0,
			"byteLength":108,
			"byteOffset":63428,
			"target":34962
		},
		{
			"buffer":0,
			"byteLength":72,
			"byteOffset":63536,
			"target":34962
		},
		{
			"buffer":0,
			"byteLength":30,
			"byteOffset":63608,
			"target":34963
		},
		{
			"buffer":0,
			"byteLength":3432,
			"byteOffset":63640,
			"target":34962
		},
		{
			"buffer":0,
			"byteLength":3432,
			"byteOffset":67072,
			"target":34962
		},
		{
			"buffer":0,
			"byteLength":2288,
			"byteOffset":70504,
			"target":34962
		},
		{
			"buffer":0,
			"byteLength":1248,
			"byteOffset":72792,
			"target":34963
		},
		{
			"buffer":0,
			"byteLength":3432,
			"byteOffset":74040,
			"target":34962
		},
		{
			"buffer":0,
			"byteLength":3432,
			"byteOffset":77472,
			"target":34962
		},
		{
			"buffer":0,
			"byteLength":2288,
			"byteOffset":80904,
			"target":34962
		}
	],
	"samplers":[
		{
			"magFilter":9728,
			"minFilter":9984
		}
	],
	"buffers":[
		{
			"byteLength":83192,
			"uri":"MB-c4aff20dcc7f03a6bd71c234a007bb10.bin"
		}
	]
}
