{
	"asset":{
		"generator":"Khronos glTF Blender I/O v4.4.55",
		"version":"2.0"
	},
	"extensionsUsed":[
		"KHR_materials_specular"
	],
	"scene":0,
	"scenes":[
		{
			"name":"Scene",
			"nodes":[
				0,
				1,
				2,
				3,
				4,
				5,
				6,
				7,
				8,
				9,
				10,
				11,
				12,
				13,
				14,
				15,
				16,
				17,
				18,
				19,
				20,
				21,
				22,
				23,
				24,
				25,
				26,
				27
			]
		}
	],
	"nodes":[
		{
			"mesh":0,
			"name":"Hall-X-col",
			"scale":[
				0.009999999776482582,
				0.009999999776482582,
				0.009999999776482582
			],
			"translation":[
				10.857841491699219,
				0,
				0
			]
		},
		{
			"mesh":1,
			"name":"Hall-U-col",
			"scale":[
				0.009999999776482582,
				0.009999999776482582,
				0.009999999776482582
			],
			"translation":[
				-11.454426765441895,
				0,
				0
			]
		},
		{
			"mesh":2,
			"name":"Hall-T-col",
			"scale":[
				0.009999999776482582,
				0.009999999776482582,
				0.009999999776482582
			],
			"translation":[
				-21.417390823364258,
				0,
				0
			]
		},
		{
			"mesh":3,
			"name":"Hall-L-col",
			"scale":[
				0.009999999776482582,
				0.009999999776482582,
				0.009999999776482582
			],
			"translation":[
				-32.39454650878906,
				0,
				0
			]
		},
		{
			"mesh":4,
			"name":"Hall-I-col",
			"scale":[
				0.009999999776482582,
				0.009999999776482582,
				0.009999999776482582
			],
			"translation":[
				24.340654373168945,
				0,
				0
			]
		},
		{
			"mesh":5,
			"name":"Hall-DoubleDoor-col",
			"scale":[
				0.009999999776482582,
				0.009999999776482582,
				0.009999999776482582
			]
		},
		{
			"mesh":6,
			"name":"Hall-Classroom-U7-col",
			"scale":[
				0.009999999776482582,
				0.009999999776482582,
				0.009999999776482582
			],
			"translation":[
				35.974056243896484,
				0,
				0
			]
		},
		{
			"mesh":7,
			"name":"Hall-Classroom-U6-col",
			"scale":[
				0.009999999776482582,
				0.009999999776482582,
				0.009999999776482582
			],
			"translation":[
				45.89560317993164,
				0,
				0
			]
		},
		{
			"mesh":8,
			"name":"Hall-Classroom-U5-col",
			"scale":[
				0.009999999776482582,
				0.009999999776482582,
				0.009999999776482582
			],
			"translation":[
				56.410770416259766,
				0,
				0
			]
		},
		{
			"mesh":9,
			"name":"Hall-Classroom-U4-col",
			"scale":[
				0.009999999776482582,
				0.009999999776482582,
				0.009999999776482582
			],
			"translation":[
				68.50484466552734,
				0,
				0
			]
		},
		{
			"mesh":10,
			"name":"Hall-Classroom-U3-col",
			"scale":[
				0.009999999776482582,
				0.009999999776482582,
				0.009999999776482582
			],
			"translation":[
				78.5544662475586,
				0,
				0
			]
		},
		{
			"mesh":11,
			"name":"Hall-Classroom-U2-col",
			"scale":[
				0.009999999776482582,
				0.009999999776482582,
				0.009999999776482582
			],
			"translation":[
				-44.891090393066406,
				0,
				0
			]
		},
		{
			"mesh":12,
			"name":"Hall-Classroom-U1-col",
			"scale":[
				0.009999999776482582,
				0.009999999776482582,
				0.009999999776482582
			],
			"translation":[
				-93.16682434082031,
				0,
				0
			]
		},
		{
			"mesh":13,
			"name":"Hall-Classroom-T-col",
			"scale":[
				0.009999999776482582,
				0.009999999776482582,
				0.009999999776482582
			],
			"translation":[
				90.49473571777344,
				0,
				0
			]
		},
		{
			"mesh":14,
			"name":"Hall-Classroom-L3-col",
			"scale":[
				0.009999999776482582,
				0.009999999776482582,
				0.009999999776482582
			],
			"translation":[
				101.18309783935547,
				0,
				0
			]
		},
		{
			"mesh":15,
			"name":"Hall-Classroom-L2-col",
			"scale":[
				0.009999999776482582,
				0.009999999776482582,
				0.009999999776482582
			],
			"translation":[
				113.4747085571289,
				0,
				0
			]
		},
		{
			"mesh":16,
			"name":"Hall-Classroom-L1-col",
			"scale":[
				0.009999999776482582,
				0.009999999776482582,
				0.009999999776482582
			],
			"translation":[
				126.9776840209961,
				0,
				0
			]
		},
		{
			"mesh":17,
			"name":"Hall-Classroom-I2-col",
			"scale":[
				0.009999999776482582,
				0.009999999776482582,
				0.009999999776482582
			],
			"translation":[
				-107.09734344482422,
				0,
				0
			]
		},
		{
			"mesh":18,
			"name":"Hall-Classroom-I1-col",
			"scale":[
				0.009999999776482582,
				0.009999999776482582,
				0.009999999776482582
			]
		},
		{
			"mesh":19,
			"name":"Classroom3-col",
			"scale":[
				0.009999999776482582,
				0.009999999776482582,
				0.009999999776482582
			],
			"translation":[
				-55.935726165771484,
				0,
				0
			]
		},
		{
			"mesh":20,
			"name":"Classroom2-col",
			"scale":[
				0.009999999776482582,
				0.009999999776482582,
				0.009999999776482582
			],
			"translation":[
				-67.69292449951172,
				0,
				0
			]
		},
		{
			"mesh":21,
			"name":"Classroom1-col",
			"scale":[
				0.009999999776482582,
				0.009999999776482582,
				0.009999999776482582
			],
			"translation":[
				-80.16266632080078,
				0,
				0
			]
		},
		{
			"mesh":22,
			"name":"Door-Wall-col",
			"scale":[
				0.009999999776482582,
				0.009999999776482582,
				0.009999999776482582
			],
			"translation":[
				68.50484466552734,
				0,
				20
			]
		},
		{
			"mesh":23,
			"name":"Wall-col",
			"scale":[
				0.009999999776482582,
				0.009999999776482582,
				0.009999999776482582
			],
			"translation":[
				56.410770416259766,
				0,
				20
			]
		},
		{
			"mesh":24,
			"name":"Wall-Wood-col",
			"scale":[
				0.009999999776482582,
				0.009999999776482582,
				0.009999999776482582
			],
			"translation":[
				-55.935726165771484,
				0,
				20
			]
		},
		{
			"mesh":25,
			"name":"Column-col",
			"scale":[
				0.009999999776482582,
				0.009999999776482582,
				0.009999999776482582
			],
			"translation":[
				-52.33562088012695,
				20.001283645629883,
				-1.9964121580123901
			]
		},
		{
			"mesh":26,
			"name":"Window-col",
			"scale":[
				0.009999999776482582,
				0.009999999776482582,
				0.009999999776482582
			],
			"translation":[
				-52.18564224243164,
				21.144805908203125,
				-5.3783878684043884e-05
			]
		},
		{
			"mesh":27,
			"name":"Floor-Wood-col",
			"scale":[
				0.009999999776482582,
				0.009999999776482582,
				0.009999999776482582
			],
			"translation":[
				-55.935726165771484,
				20,
				-7.900001049041748
			]
		}
	],
	"materials":[
		{
			"doubleSided":true,
			"extensions":{
				"KHR_materials_specular":{
					"specularFactor":0
				}
			},
			"name":"MAT-Hall-X.001",
			"pbrMetallicRoughness":{
				"baseColorTexture":{
					"index":0
				},
				"metallicFactor":0,
				"roughnessFactor":0.5
			}
		},
		{
			"doubleSided":true,
			"extensions":{
				"KHR_materials_specular":{
					"specularFactor":0
				}
			},
			"name":"MAT-Hall-U.001",
			"pbrMetallicRoughness":{
				"baseColorTexture":{
					"index":1
				},
				"metallicFactor":0,
				"roughnessFactor":0.5
			}
		},
		{
			"doubleSided":true,
			"extensions":{
				"KHR_materials_specular":{
					"specularFactor":0
				}
			},
			"name":"MAT-Hall-T.001",
			"pbrMetallicRoughness":{
				"baseColorTexture":{
					"index":2
				},
				"metallicFactor":0,
				"roughnessFactor":0.5
			}
		},
		{
			"doubleSided":true,
			"extensions":{
				"KHR_materials_specular":{
					"specularFactor":0
				}
			},
			"name":"MAT-Hall-L.001",
			"pbrMetallicRoughness":{
				"baseColorTexture":{
					"index":3
				},
				"metallicFactor":0,
				"roughnessFactor":0.5
			}
		},
		{
			"doubleSided":true,
			"extensions":{
				"KHR_materials_specular":{
					"specularFactor":0
				}
			},
			"name":"MAT-Hall-I.001",
			"pbrMetallicRoughness":{
				"baseColorTexture":{
					"index":4
				},
				"metallicFactor":0,
				"roughnessFactor":0.5
			}
		},
		{
			"doubleSided":true,
			"extensions":{
				"KHR_materials_specular":{
					"specularFactor":0
				}
			},
			"name":"MAT-Hall-DoubleDoor.001",
			"pbrMetallicRoughness":{
				"baseColorTexture":{
					"index":5
				},
				"metallicFactor":0,
				"roughnessFactor":0.5
			}
		},
		{
			"doubleSided":true,
			"extensions":{
				"KHR_materials_specular":{
					"specularFactor":0
				}
			},
			"name":"MAT-Classroom.001",
			"pbrMetallicRoughness":{
				"baseColorTexture":{
					"index":6
				},
				"metallicFactor":0,
				"roughnessFactor":0.5
			}
		},
		{
			"doubleSided":true,
			"extensions":{
				"KHR_materials_specular":{
					"specularFactor":0
				}
			},
			"name":"MAT-Window.001",
			"pbrMetallicRoughness":{
				"baseColorTexture":{
					"index":7
				},
				"metallicFactor":0,
				"roughnessFactor":0.5
			}
		},
		{
			"doubleSided":true,
			"extensions":{
				"KHR_materials_specular":{
					"specularFactor":0
				}
			},
			"name":"MAT-Curtains.001",
			"pbrMetallicRoughness":{
				"baseColorTexture":{
					"index":8
				},
				"metallicFactor":0,
				"roughnessFactor":0.5
			}
		}
	],
	"meshes":[
		{
			"name":"MESH-Hall-X.001",
			"primitives":[
				{
					"attributes":{
						"POSITION":0,
						"NORMAL":1,
						"TEXCOORD_0":2,
						"TANGENT":3
					},
					"indices":4,
					"material":0
				}
			]
		},
		{
			"name":"MESH-Hall-U.001",
			"primitives":[
				{
					"attributes":{
						"POSITION":5,
						"NORMAL":6,
						"TEXCOORD_0":7,
						"TANGENT":8
					},
					"indices":9,
					"material":1
				}
			]
		},
		{
			"name":"MESH-Hall-T.001",
			"primitives":[
				{
					"attributes":{
						"POSITION":10,
						"NORMAL":11,
						"TEXCOORD_0":12,
						"TANGENT":13
					},
					"indices":14,
					"material":2
				}
			]
		},
		{
			"name":"MESH-Hall-L.001",
			"primitives":[
				{
					"attributes":{
						"POSITION":15,
						"NORMAL":16,
						"TEXCOORD_0":17,
						"TANGENT":18
					},
					"indices":19,
					"material":3
				}
			]
		},
		{
			"name":"MESH-Hall-I.001",
			"primitives":[
				{
					"attributes":{
						"POSITION":20,
						"NORMAL":21,
						"TEXCOORD_0":22,
						"TANGENT":23
					},
					"indices":24,
					"material":4
				}
			]
		},
		{
			"name":"MESH-Hall-DoubleDoor.001",
			"primitives":[
				{
					"attributes":{
						"POSITION":25,
						"NORMAL":26,
						"TEXCOORD_0":27
					},
					"indices":28,
					"material":5
				}
			]
		},
		{
			"name":"MESH-Hall-Classroom-U7.001",
			"primitives":[
				{
					"attributes":{
						"POSITION":29,
						"NORMAL":30,
						"TEXCOORD_0":31
					},
					"indices":32,
					"material":1
				}
			]
		},
		{
			"name":"MESH-Hall-Classroom-U6.001",
			"primitives":[
				{
					"attributes":{
						"POSITION":33,
						"NORMAL":34,
						"TEXCOORD_0":35
					},
					"indices":36,
					"material":1
				}
			]
		},
		{
			"name":"MESH-Hall-Classroom-U5.001",
			"primitives":[
				{
					"attributes":{
						"POSITION":37,
						"NORMAL":38,
						"TEXCOORD_0":39
					},
					"indices":40,
					"material":1
				}
			]
		},
		{
			"name":"MESH-Hall-Classroom-U4.001",
			"primitives":[
				{
					"attributes":{
						"POSITION":41,
						"NORMAL":42,
						"TEXCOORD_0":43
					},
					"indices":44,
					"material":1
				}
			]
		},
		{
			"name":"MESH-Hall-Classroom-U3.001",
			"primitives":[
				{
					"attributes":{
						"POSITION":45,
						"NORMAL":46,
						"TEXCOORD_0":47
					},
					"indices":48,
					"material":1
				}
			]
		},
		{
			"name":"MESH-Hall-Classroom-U2.001",
			"primitives":[
				{
					"attributes":{
						"POSITION":49,
						"NORMAL":50,
						"TEXCOORD_0":51
					},
					"indices":52,
					"material":1
				}
			]
		},
		{
			"name":"MESH-Hall-Classroom-U1.001",
			"primitives":[
				{
					"attributes":{
						"POSITION":53,
						"NORMAL":54,
						"TEXCOORD_0":55
					},
					"indices":56,
					"material":1
				}
			]
		},
		{
			"name":"MESH-Hall-Classroom-T.001",
			"primitives":[
				{
					"attributes":{
						"POSITION":57,
						"NORMAL":58,
						"TEXCOORD_0":59
					},
					"indices":60,
					"material":2
				}
			]
		},
		{
			"name":"MESH-Hall-Classroom-L3.001",
			"primitives":[
				{
					"attributes":{
						"POSITION":61,
						"NORMAL":62,
						"TEXCOORD_0":63
					},
					"indices":64,
					"material":3
				}
			]
		},
		{
			"name":"MESH-Hall-Classroom-L2.001",
			"primitives":[
				{
					"attributes":{
						"POSITION":65,
						"NORMAL":66,
						"TEXCOORD_0":67
					},
					"indices":68,
					"material":3
				}
			]
		},
		{
			"name":"MESH-Hall-Classroom-L1.001",
			"primitives":[
				{
					"attributes":{
						"POSITION":69,
						"NORMAL":70,
						"TEXCOORD_0":71
					},
					"indices":72,
					"material":3
				}
			]
		},
		{
			"name":"MESH-Hall-Classroom-I2.001",
			"primitives":[
				{
					"attributes":{
						"POSITION":73,
						"NORMAL":74,
						"TEXCOORD_0":75
					},
					"indices":76,
					"material":4
				}
			]
		},
		{
			"name":"MESH-Hall-Classroom-I1.001",
			"primitives":[
				{
					"attributes":{
						"POSITION":77,
						"NORMAL":78,
						"TEXCOORD_0":79
					},
					"indices":80,
					"material":4
				}
			]
		},
		{
			"name":"MESH-Classroom3.001",
			"primitives":[
				{
					"attributes":{
						"POSITION":81,
						"NORMAL":82,
						"TEXCOORD_0":83
					},
					"indices":84,
					"material":6
				},
				{
					"attributes":{
						"POSITION":85,
						"NORMAL":86,
						"TEXCOORD_0":87
					},
					"indices":88,
					"material":7
				},
				{
					"attributes":{
						"POSITION":89,
						"NORMAL":90,
						"TEXCOORD_0":91
					},
					"indices":92,
					"material":8
				}
			]
		},
		{
			"name":"MESH-Classroom2.001",
			"primitives":[
				{
					"attributes":{
						"POSITION":93,
						"NORMAL":94,
						"TEXCOORD_0":95
					},
					"indices":96,
					"material":6
				},
				{
					"attributes":{
						"POSITION":97,
						"NORMAL":98,
						"TEXCOORD_0":99
					},
					"indices":88,
					"material":7
				},
				{
					"attributes":{
						"POSITION":100,
						"NORMAL":101,
						"TEXCOORD_0":102
					},
					"indices":92,
					"material":8
				}
			]
		},
		{
			"name":"MESH-Classroom1.001",
			"primitives":[
				{
					"attributes":{
						"POSITION":103,
						"NORMAL":104,
						"TEXCOORD_0":105
					},
					"indices":106,
					"material":6
				},
				{
					"attributes":{
						"POSITION":107,
						"NORMAL":108,
						"TEXCOORD_0":109
					},
					"indices":88,
					"material":7
				},
				{
					"attributes":{
						"POSITION":110,
						"NORMAL":111,
						"TEXCOORD_0":112
					},
					"indices":92,
					"material":8
				}
			]
		},
		{
			"name":"MESH-Hall-Classroom-U4.003",
			"primitives":[
				{
					"attributes":{
						"POSITION":113,
						"NORMAL":114,
						"TEXCOORD_0":115
					},
					"indices":116,
					"material":1
				}
			]
		},
		{
			"name":"MESH-Hall-Classroom-U5.002",
			"primitives":[
				{
					"attributes":{
						"POSITION":117,
						"NORMAL":118,
						"TEXCOORD_0":119,
						"TANGENT":120
					},
					"indices":121,
					"material":1
				}
			]
		},
		{
			"name":"MESH-Classroom3.002",
			"primitives":[
				{
					"attributes":{
						"POSITION":122,
						"NORMAL":123,
						"TEXCOORD_0":124,
						"TANGENT":125
					},
					"indices":126,
					"material":6
				}
			]
		},
		{
			"name":"MESH-Classroom3.003",
			"primitives":[
				{
					"attributes":{
						"POSITION":127,
						"NORMAL":128,
						"TEXCOORD_0":129,
						"TANGENT":130
					},
					"indices":131,
					"material":6
				}
			]
		},
		{
			"name":"MESH-Classroom3.004",
			"primitives":[
				{
					"attributes":{
						"POSITION":132,
						"NORMAL":133,
						"TEXCOORD_0":134,
						"TANGENT":135
					},
					"indices":136,
					"material":7
				},
				{
					"attributes":{
						"POSITION":137,
						"NORMAL":138,
						"TEXCOORD_0":139,
						"TANGENT":140
					},
					"indices":141,
					"material":8
				}
			]
		},
		{
			"name":"MESH-Classroom3.005",
			"primitives":[
				{
					"attributes":{
						"POSITION":142,
						"NORMAL":143,
						"TEXCOORD_0":144
					},
					"indices":145,
					"material":6
				}
			]
		}
	],
	"textures":[
		{
			"sampler":0,
			"source":0
		},
		{
			"sampler":0,
			"source":1
		},
		{
			"sampler":0,
			"source":2
		},
		{
			"sampler":0,
			"source":3
		},
		{
			"sampler":0,
			"source":4
		},
		{
			"sampler":0,
			"source":5
		},
		{
			"sampler":0,
			"source":6
		},
		{
			"sampler":0,
			"source":7
		},
		{
			"sampler":0,
			"source":8
		}
	],
	"images":[
		{
			"mimeType":"image/png",
			"name":"TEX-Hall-X.png.001",
			"uri":"../../assets/GridMapProps/textures/TEX-Hall-X.png"
		},
		{
			"mimeType":"image/png",
			"name":"TEX-Hall-U.png.001",
			"uri":"../../assets/GridMapProps/textures/TEX-Hall-U.png"
		},
		{
			"mimeType":"image/png",
			"name":"TEX-Hall-T.png.001",
			"uri":"../../assets/GridMapProps/textures/TEX-Hall-T.png"
		},
		{
			"mimeType":"image/png",
			"name":"TEX-Hall-L.png.001",
			"uri":"../../assets/GridMapProps/textures/TEX-Hall-L.png"
		},
		{
			"mimeType":"image/png",
			"name":"TEX-Hall-I.png.001",
			"uri":"../../assets/GridMapProps/textures/TEX-Hall-I.png"
		},
		{
			"mimeType":"image/png",
			"name":"TEX-Hall-DoubleDoor.png.001",
			"uri":"../../assets/GridMapProps/textures/TEX-Hall-DoubleDoor.png"
		},
		{
			"mimeType":"image/png",
			"name":"TEX-Classroom.png.001",
			"uri":"../../assets/GridMapProps/textures/TEX-Classroom.png"
		},
		{
			"mimeType":"image/png",
			"name":"TEX-Window.png.001",
			"uri":"../../assets/GridMapProps/textures/TEX-Window.png"
		},
		{
			"mimeType":"image/png",
			"name":"TEX-Curtains.png.001",
			"uri":"../../assets/GridMapProps/textures/TEX-Curtains.png"
		}
	],
	"accessors":[
		{
			"bufferView":0,
			"componentType":5126,
			"count":4,
			"max":[
				400.00018310546875,
				0,
				400.00018310546875
			],
			"min":[
				-400.00042724609375,
				0,
				-400.00042724609375
			],
			"type":"VEC3"
		},
		{
			"bufferView":1,
			"componentType":5126,
			"count":4,
			"type":"VEC3"
		},
		{
			"bufferView":2,
			"componentType":5126,
			"count":4,
			"type":"VEC2"
		},
		{
			"bufferView":3,
			"componentType":5126,
			"count":4,
			"type":"VEC4"
		},
		{
			"bufferView":4,
			"componentType":5123,
			"count":6,
			"type":"SCALAR"
		},
		{
			"bufferView":5,
			"componentType":5126,
			"count":16,
			"max":[
				399.99993896484375,
				500,
				400.00018310546875
			],
			"min":[
				-400.00018310546875,
				0,
				-399.99993896484375
			],
			"type":"VEC3"
		},
		{
			"bufferView":6,
			"componentType":5126,
			"count":16,
			"type":"VEC3"
		},
		{
			"bufferView":7,
			"componentType":5126,
			"count":16,
			"type":"VEC2"
		},
		{
			"bufferView":8,
			"componentType":5126,
			"count":16,
			"type":"VEC4"
		},
		{
			"bufferView":9,
			"componentType":5123,
			"count":24,
			"type":"SCALAR"
		},
		{
			"bufferView":10,
			"componentType":5126,
			"count":8,
			"max":[
				400.0006408691406,
				500,
				400.0006408691406
			],
			"min":[
				-400.0003967285156,
				0,
				-400.0003967285156
			],
			"type":"VEC3"
		},
		{
			"bufferView":11,
			"componentType":5126,
			"count":8,
			"type":"VEC3"
		},
		{
			"bufferView":12,
			"componentType":5126,
			"count":8,
			"type":"VEC2"
		},
		{
			"bufferView":13,
			"componentType":5126,
			"count":8,
			"type":"VEC4"
		},
		{
			"bufferView":14,
			"componentType":5123,
			"count":12,
			"type":"SCALAR"
		},
		{
			"bufferView":15,
			"componentType":5126,
			"count":12,
			"max":[
				400.00067138671875,
				500,
				400.00067138671875
			],
			"min":[
				-400.00042724609375,
				0,
				-400.00042724609375
			],
			"type":"VEC3"
		},
		{
			"bufferView":16,
			"componentType":5126,
			"count":12,
			"type":"VEC3"
		},
		{
			"bufferView":17,
			"componentType":5126,
			"count":12,
			"type":"VEC2"
		},
		{
			"bufferView":18,
			"componentType":5126,
			"count":12,
			"type":"VEC4"
		},
		{
			"bufferView":19,
			"componentType":5123,
			"count":18,
			"type":"SCALAR"
		},
		{
			"bufferView":20,
			"componentType":5126,
			"count":12,
			"max":[
				400.00042724609375,
				500,
				400.00018310546875
			],
			"min":[
				-400.00018310546875,
				0,
				-400.00042724609375
			],
			"type":"VEC3"
		},
		{
			"bufferView":21,
			"componentType":5126,
			"count":12,
			"type":"VEC3"
		},
		{
			"bufferView":22,
			"componentType":5126,
			"count":12,
			"type":"VEC2"
		},
		{
			"bufferView":23,
			"componentType":5126,
			"count":12,
			"type":"VEC4"
		},
		{
			"bufferView":24,
			"componentType":5123,
			"count":18,
			"type":"SCALAR"
		},
		{
			"bufferView":25,
			"componentType":5126,
			"count":28,
			"max":[
				400.00067138671875,
				500,
				10.000640869140625
			],
			"min":[
				-399.9993896484375,
				0,
				-10.00042724609375
			],
			"type":"VEC3"
		},
		{
			"bufferView":26,
			"componentType":5126,
			"count":28,
			"type":"VEC3"
		},
		{
			"bufferView":27,
			"componentType":5126,
			"count":28,
			"type":"VEC2"
		},
		{
			"bufferView":28,
			"componentType":5123,
			"count":54,
			"type":"SCALAR"
		},
		{
			"bufferView":29,
			"componentType":5126,
			"count":26,
			"max":[
				400.0002136230469,
				500,
				400.00030517578125
			],
			"min":[
				-449.9989929199219,
				0,
				-400.000732421875
			],
			"type":"VEC3"
		},
		{
			"bufferView":30,
			"componentType":5126,
			"count":26,
			"type":"VEC3"
		},
		{
			"bufferView":31,
			"componentType":5126,
			"count":26,
			"type":"VEC2"
		},
		{
			"bufferView":32,
			"componentType":5123,
			"count":48,
			"type":"SCALAR"
		},
		{
			"bufferView":33,
			"componentType":5126,
			"count":26,
			"max":[
				449.9989929199219,
				500,
				400.00030517578125
			],
			"min":[
				-400.0002136230469,
				0,
				-400.000732421875
			],
			"type":"VEC3"
		},
		{
			"bufferView":34,
			"componentType":5126,
			"count":26,
			"type":"VEC3"
		},
		{
			"bufferView":35,
			"componentType":5126,
			"count":26,
			"type":"VEC2"
		},
		{
			"bufferView":36,
			"componentType":5123,
			"count":48,
			"type":"SCALAR"
		},
		{
			"bufferView":37,
			"componentType":5126,
			"count":36,
			"max":[
				449.9989929199219,
				500,
				400.00030517578125
			],
			"min":[
				-449.9998474121094,
				0,
				-400.0007019042969
			],
			"type":"VEC3"
		},
		{
			"bufferView":38,
			"componentType":5126,
			"count":36,
			"type":"VEC3"
		},
		{
			"bufferView":39,
			"componentType":5126,
			"count":36,
			"type":"VEC2"
		},
		{
			"bufferView":40,
			"componentType":5123,
			"count":72,
			"type":"SCALAR"
		},
		{
			"bufferView":41,
			"componentType":5126,
			"count":46,
			"max":[
				449.9989929199219,
				500,
				449.9999694824219
			],
			"min":[
				-449.9998474121094,
				0,
				-400.0007019042969
			],
			"type":"VEC3"
		},
		{
			"bufferView":42,
			"componentType":5126,
			"count":46,
			"type":"VEC3"
		},
		{
			"bufferView":43,
			"componentType":5126,
			"count":46,
			"type":"VEC2"
		},
		{
			"bufferView":44,
			"componentType":5123,
			"count":96,
			"type":"SCALAR"
		},
		{
			"bufferView":45,
			"componentType":5126,
			"count":36,
			"max":[
				400.00042724609375,
				500,
				449.9999694824219
			],
			"min":[
				-449.9990234375,
				0,
				-400.00067138671875
			],
			"type":"VEC3"
		},
		{
			"bufferView":46,
			"componentType":5126,
			"count":36,
			"type":"VEC3"
		},
		{
			"bufferView":47,
			"componentType":5126,
			"count":36,
			"type":"VEC2"
		},
		{
			"bufferView":48,
			"componentType":5123,
			"count":72,
			"type":"SCALAR"
		},
		{
			"bufferView":49,
			"componentType":5126,
			"count":32,
			"max":[
				399.9999694824219,
				500,
				433.490234375
			],
			"min":[
				-400.00091552734375,
				0,
				-400.0007019042969
			],
			"type":"VEC3"
		},
		{
			"bufferView":50,
			"componentType":5126,
			"count":32,
			"type":"VEC3"
		},
		{
			"bufferView":51,
			"componentType":5126,
			"count":32,
			"type":"VEC2"
		},
		{
			"bufferView":52,
			"componentType":5123,
			"count":66,
			"type":"SCALAR"
		},
		{
			"bufferView":53,
			"componentType":5126,
			"count":26,
			"max":[
				400.0004577636719,
				500,
				449.9999694824219
			],
			"min":[
				-400.00091552734375,
				0,
				-400.0007019042969
			],
			"type":"VEC3"
		},
		{
			"bufferView":54,
			"componentType":5126,
			"count":26,
			"type":"VEC3"
		},
		{
			"bufferView":55,
			"componentType":5126,
			"count":26,
			"type":"VEC2"
		},
		{
			"bufferView":56,
			"componentType":5123,
			"count":48,
			"type":"SCALAR"
		},
		{
			"bufferView":57,
			"componentType":5126,
			"count":18,
			"max":[
				400.0003662109375,
				500,
				400.0003662109375
			],
			"min":[
				-400.0006103515625,
				0,
				-450.0002136230469
			],
			"type":"VEC3"
		},
		{
			"bufferView":58,
			"componentType":5126,
			"count":18,
			"type":"VEC3"
		},
		{
			"bufferView":59,
			"componentType":5126,
			"count":18,
			"type":"VEC2"
		},
		{
			"bufferView":60,
			"componentType":5123,
			"count":36,
			"type":"SCALAR"
		},
		{
			"bufferView":61,
			"componentType":5126,
			"count":32,
			"max":[
				450.0001220703125,
				500,
				400.0002746582031
			],
			"min":[
				-400.00042724609375,
				0,
				-450.000244140625
			],
			"type":"VEC3"
		},
		{
			"bufferView":62,
			"componentType":5126,
			"count":32,
			"type":"VEC3"
		},
		{
			"bufferView":63,
			"componentType":5126,
			"count":32,
			"type":"VEC2"
		},
		{
			"bufferView":64,
			"componentType":5123,
			"count":66,
			"type":"SCALAR"
		},
		{
			"bufferView":65,
			"componentType":5126,
			"count":22,
			"max":[
				450.0001220703125,
				500,
				400.0002746582031
			],
			"min":[
				-400.00042724609375,
				0,
				-399.9997863769531
			],
			"type":"VEC3"
		},
		{
			"bufferView":66,
			"componentType":5126,
			"count":22,
			"type":"VEC3"
		},
		{
			"bufferView":67,
			"componentType":5126,
			"count":22,
			"type":"VEC2"
		},
		{
			"bufferView":68,
			"componentType":5123,
			"count":42,
			"type":"SCALAR"
		},
		{
			"bufferView":69,
			"componentType":5126,
			"count":22,
			"max":[
				400.00006103515625,
				500,
				400.00067138671875
			],
			"min":[
				-400.00042724609375,
				0,
				-450.000244140625
			],
			"type":"VEC3"
		},
		{
			"bufferView":70,
			"componentType":5126,
			"count":22,
			"type":"VEC3"
		},
		{
			"bufferView":71,
			"componentType":5126,
			"count":22,
			"type":"VEC2"
		},
		{
			"bufferView":72,
			"componentType":5123,
			"count":42,
			"type":"SCALAR"
		},
		{
			"bufferView":73,
			"componentType":5126,
			"count":32,
			"max":[
				450.0001525878906,
				500,
				399.9998779296875
			],
			"min":[
				-449.9998474121094,
				0,
				-400.0003662109375
			],
			"type":"VEC3"
		},
		{
			"bufferView":74,
			"componentType":5126,
			"count":32,
			"type":"VEC3"
		},
		{
			"bufferView":75,
			"componentType":5126,
			"count":32,
			"type":"VEC2"
		},
		{
			"bufferView":76,
			"componentType":5123,
			"count":66,
			"type":"SCALAR"
		},
		{
			"bufferView":77,
			"componentType":5126,
			"count":22,
			"max":[
				450.0001525878906,
				500,
				400.0001220703125
			],
			"min":[
				-400.0001220703125,
				0,
				-400.0003662109375
			],
			"type":"VEC3"
		},
		{
			"bufferView":78,
			"componentType":5126,
			"count":22,
			"type":"VEC3"
		},
		{
			"bufferView":79,
			"componentType":5126,
			"count":22,
			"type":"VEC2"
		},
		{
			"bufferView":80,
			"componentType":5123,
			"count":42,
			"type":"SCALAR"
		},
		{
			"bufferView":81,
			"componentType":5126,
			"count":114,
			"max":[
				380.0007629394531,
				500,
				380.0001220703125
			],
			"min":[
				-400.00018310546875,
				0,
				-1180.0003662109375
			],
			"type":"VEC3"
		},
		{
			"bufferView":82,
			"componentType":5126,
			"count":114,
			"type":"VEC3"
		},
		{
			"bufferView":83,
			"componentType":5126,
			"count":114,
			"type":"VEC2"
		},
		{
			"bufferView":84,
			"componentType":5123,
			"count":192,
			"type":"SCALAR"
		},
		{
			"bufferView":85,
			"componentType":5126,
			"count":132,
			"max":[
				380.00054931640625,
				350.625,
				94.4999008178711
			],
			"min":[
				375.0002746582031,
				114.375,
				-894.5000610351562
			],
			"type":"VEC3"
		},
		{
			"bufferView":86,
			"componentType":5126,
			"count":132,
			"type":"VEC3"
		},
		{
			"bufferView":87,
			"componentType":5126,
			"count":132,
			"type":"VEC2"
		},
		{
			"bufferView":88,
			"componentType":5123,
			"count":234,
			"type":"SCALAR"
		},
		{
			"bufferView":89,
			"componentType":5126,
			"count":72,
			"max":[
				374.6166076660156,
				346.92498779296875,
				96.1638412475586
			],
			"min":[
				369.4974670410156,
				102.05493927001953,
				-896.5001220703125
			],
			"type":"VEC3"
		},
		{
			"bufferView":90,
			"componentType":5126,
			"count":72,
			"type":"VEC3"
		},
		{
			"bufferView":91,
			"componentType":5126,
			"count":72,
			"type":"VEC2"
		},
		{
			"bufferView":92,
			"componentType":5123,
			"count":108,
			"type":"SCALAR"
		},
		{
			"bufferView":93,
			"componentType":5126,
			"count":96,
			"max":[
				380.001220703125,
				500,
				380.0001220703125
			],
			"min":[
				-400.00018310546875,
				0,
				-1180.0003662109375
			],
			"type":"VEC3"
		},
		{
			"bufferView":94,
			"componentType":5126,
			"count":96,
			"type":"VEC3"
		},
		{
			"bufferView":95,
			"componentType":5126,
			"count":96,
			"type":"VEC2"
		},
		{
			"bufferView":96,
			"componentType":5123,
			"count":156,
			"type":"SCALAR"
		},
		{
			"bufferView":97,
			"componentType":5126,
			"count":132,
			"max":[
				380.0002746582031,
				350.625,
				94.4999008178711
			],
			"min":[
				375,
				114.375,
				-894.5000610351562
			],
			"type":"VEC3"
		},
		{
			"bufferView":98,
			"componentType":5126,
			"count":132,
			"type":"VEC3"
		},
		{
			"bufferView":99,
			"componentType":5126,
			"count":132,
			"type":"VEC2"
		},
		{
			"bufferView":100,
			"componentType":5126,
			"count":72,
			"max":[
				374.6166076660156,
				346.92498779296875,
				96.16389465332031
			],
			"min":[
				369.4974670410156,
				102.05493927001953,
				-896.5000610351562
			],
			"type":"VEC3"
		},
		{
			"bufferView":101,
			"componentType":5126,
			"count":72,
			"type":"VEC3"
		},
		{
			"bufferView":102,
			"componentType":5126,
			"count":72,
			"type":"VEC2"
		},
		{
			"bufferView":103,
			"componentType":5126,
			"count":96,
			"max":[
				380.00103759765625,
				500,
				1180.0008544921875
			],
			"min":[
				-400.0002136230469,
				0,
				-380.00018310546875
			],
			"type":"VEC3"
		},
		{
			"bufferView":104,
			"componentType":5126,
			"count":96,
			"type":"VEC3"
		},
		{
			"bufferView":105,
			"componentType":5126,
			"count":96,
			"type":"VEC2"
		},
		{
			"bufferView":106,
			"componentType":5123,
			"count":156,
			"type":"SCALAR"
		},
		{
			"bufferView":107,
			"componentType":5126,
			"count":132,
			"max":[
				380.0009765625,
				350.625,
				894.4999389648438
			],
			"min":[
				375.0007019042969,
				114.375,
				-94.49998474121094
			],
			"type":"VEC3"
		},
		{
			"bufferView":108,
			"componentType":5126,
			"count":132,
			"type":"VEC3"
		},
		{
			"bufferView":109,
			"componentType":5126,
			"count":132,
			"type":"VEC2"
		},
		{
			"bufferView":110,
			"componentType":5126,
			"count":72,
			"max":[
				374.6170349121094,
				346.92498779296875,
				896.1638793945312
			],
			"min":[
				369.4978942871094,
				102.05493927001953,
				-96.50004577636719
			],
			"type":"VEC3"
		},
		{
			"bufferView":111,
			"componentType":5126,
			"count":72,
			"type":"VEC3"
		},
		{
			"bufferView":112,
			"componentType":5126,
			"count":72,
			"type":"VEC2"
		},
		{
			"bufferView":113,
			"componentType":5126,
			"count":12,
			"max":[
				399.9986877441406,
				500,
				-0.25045013427734375
			],
			"min":[
				-400.000244140625,
				0,
				-49.862022399902344
			],
			"type":"VEC3"
		},
		{
			"bufferView":114,
			"componentType":5126,
			"count":12,
			"type":"VEC3"
		},
		{
			"bufferView":115,
			"componentType":5126,
			"count":12,
			"type":"VEC2"
		},
		{
			"bufferView":116,
			"componentType":5123,
			"count":24,
			"type":"SCALAR"
		},
		{
			"bufferView":117,
			"componentType":5126,
			"count":8,
			"max":[
				400.0000305175781,
				500,
				-0.25032806396484375
			],
			"min":[
				-399.9994812011719,
				0,
				-34.69542694091797
			],
			"type":"VEC3"
		},
		{
			"bufferView":118,
			"componentType":5126,
			"count":8,
			"type":"VEC3"
		},
		{
			"bufferView":119,
			"componentType":5126,
			"count":8,
			"type":"VEC2"
		},
		{
			"bufferView":120,
			"componentType":5126,
			"count":8,
			"type":"VEC4"
		},
		{
			"bufferView":121,
			"componentType":5123,
			"count":12,
			"type":"SCALAR"
		},
		{
			"bufferView":122,
			"componentType":5126,
			"count":8,
			"max":[
				379.9996643066406,
				500,
				-0.0738067626953125
			],
			"min":[
				-380.0003662109375,
				0,
				-34.83607482910156
			],
			"type":"VEC3"
		},
		{
			"bufferView":123,
			"componentType":5126,
			"count":8,
			"type":"VEC3"
		},
		{
			"bufferView":124,
			"componentType":5126,
			"count":8,
			"type":"VEC2"
		},
		{
			"bufferView":125,
			"componentType":5126,
			"count":8,
			"type":"VEC4"
		},
		{
			"bufferView":126,
			"componentType":5123,
			"count":12,
			"type":"SCALAR"
		},
		{
			"bufferView":127,
			"componentType":5126,
			"count":16,
			"max":[
				19.98974609375,
				499.87158203125,
				49.64122009277344
			],
			"min":[
				-0.010284423828125,
				-0.12841796875,
				-50.35877990722656
			],
			"type":"VEC3"
		},
		{
			"bufferView":128,
			"componentType":5126,
			"count":16,
			"type":"VEC3"
		},
		{
			"bufferView":129,
			"componentType":5126,
			"count":16,
			"type":"VEC2"
		},
		{
			"bufferView":130,
			"componentType":5126,
			"count":16,
			"type":"VEC4"
		},
		{
			"bufferView":131,
			"componentType":5123,
			"count":24,
			"type":"SCALAR"
		},
		{
			"bufferView":132,
			"componentType":5126,
			"count":46,
			"max":[
				4.991973876953125,
				236.1444091796875,
				94.5052490234375
			],
			"min":[
				-38.3480224609375,
				-0.1055908203125,
				-94.49475860595703
			],
			"type":"VEC3"
		},
		{
			"bufferView":133,
			"componentType":5126,
			"count":46,
			"type":"VEC3"
		},
		{
			"bufferView":134,
			"componentType":5126,
			"count":46,
			"type":"VEC2"
		},
		{
			"bufferView":135,
			"componentType":5126,
			"count":46,
			"type":"VEC4"
		},
		{
			"bufferView":136,
			"componentType":5123,
			"count":84,
			"type":"SCALAR"
		},
		{
			"bufferView":137,
			"componentType":5126,
			"count":24,
			"max":[
				-0.391876220703125,
				232.44439697265625,
				96.169189453125
			],
			"min":[
				-5.510833740234375,
				-12.352691650390625,
				-96.4947509765625
			],
			"type":"VEC3"
		},
		{
			"bufferView":138,
			"componentType":5126,
			"count":24,
			"type":"VEC3"
		},
		{
			"bufferView":139,
			"componentType":5126,
			"count":24,
			"type":"VEC2"
		},
		{
			"bufferView":140,
			"componentType":5126,
			"count":24,
			"type":"VEC4"
		},
		{
			"bufferView":141,
			"componentType":5123,
			"count":36,
			"type":"SCALAR"
		},
		{
			"bufferView":142,
			"componentType":5126,
			"count":6,
			"max":[
				380.00030517578125,
				0,
				390.00006103515625
			],
			"min":[
				-380.00030517578125,
				0,
				-390.0001220703125
			],
			"type":"VEC3"
		},
		{
			"bufferView":143,
			"componentType":5126,
			"count":6,
			"type":"VEC3"
		},
		{
			"bufferView":144,
			"componentType":5126,
			"count":6,
			"type":"VEC2"
		},
		{
			"bufferView":145,
			"componentType":5123,
			"count":12,
			"type":"SCALAR"
		}
	],
	"bufferViews":[
		{
			"buffer":0,
			"byteLength":48,
			"byteOffset":0,
			"target":34962
		},
		{
			"buffer":0,
			"byteLength":48,
			"byteOffset":48,
			"target":34962
		},
		{
			"buffer":0,
			"byteLength":32,
			"byteOffset":96,
			"target":34962
		},
		{
			"buffer":0,
			"byteLength":64,
			"byteOffset":128,
			"target":34962
		},
		{
			"buffer":0,
			"byteLength":12,
			"byteOffset":192,
			"target":34963
		},
		{
			"buffer":0,
			"byteLength":192,
			"byteOffset":204,
			"target":34962
		},
		{
			"buffer":0,
			"byteLength":192,
			"byteOffset":396,
			"target":34962
		},
		{
			"buffer":0,
			"byteLength":128,
			"byteOffset":588,
			"target":34962
		},
		{
			"buffer":0,
			"byteLength":256,
			"byteOffset":716,
			"target":34962
		},
		{
			"buffer":0,
			"byteLength":48,
			"byteOffset":972,
			"target":34963
		},
		{
			"buffer":0,
			"byteLength":96,
			"byteOffset":1020,
			"target":34962
		},
		{
			"buffer":0,
			"byteLength":96,
			"byteOffset":1116,
			"target":34962
		},
		{
			"buffer":0,
			"byteLength":64,
			"byteOffset":1212,
			"target":34962
		},
		{
			"buffer":0,
			"byteLength":128,
			"byteOffset":1276,
			"target":34962
		},
		{
			"buffer":0,
			"byteLength":24,
			"byteOffset":1404,
			"target":34963
		},
		{
			"buffer":0,
			"byteLength":144,
			"byteOffset":1428,
			"target":34962
		},
		{
			"buffer":0,
			"byteLength":144,
			"byteOffset":1572,
			"target":34962
		},
		{
			"buffer":0,
			"byteLength":96,
			"byteOffset":1716,
			"target":34962
		},
		{
			"buffer":0,
			"byteLength":192,
			"byteOffset":1812,
			"target":34962
		},
		{
			"buffer":0,
			"byteLength":36,
			"byteOffset":2004,
			"target":34963
		},
		{
			"buffer":0,
			"byteLength":144,
			"byteOffset":2040,
			"target":34962
		},
		{
			"buffer":0,
			"byteLength":144,
			"byteOffset":2184,
			"target":34962
		},
		{
			"buffer":0,
			"byteLength":96,
			"byteOffset":2328,
			"target":34962
		},
		{
			"buffer":0,
			"byteLength":192,
			"byteOffset":2424,
			"target":34962
		},
		{
			"buffer":0,
			"byteLength":36,
			"byteOffset":2616,
			"target":34963
		},
		{
			"buffer":0,
			"byteLength":336,
			"byteOffset":2652,
			"target":34962
		},
		{
			"buffer":0,
			"byteLength":336,
			"byteOffset":2988,
			"target":34962
		},
		{
			"buffer":0,
			"byteLength":224,
			"byteOffset":3324,
			"target":34962
		},
		{
			"buffer":0,
			"byteLength":108,
			"byteOffset":3548,
			"target":34963
		},
		{
			"buffer":0,
			"byteLength":312,
			"byteOffset":3656,
			"target":34962
		},
		{
			"buffer":0,
			"byteLength":312,
			"byteOffset":3968,
			"target":34962
		},
		{
			"buffer":0,
			"byteLength":208,
			"byteOffset":4280,
			"target":34962
		},
		{
			"buffer":0,
			"byteLength":96,
			"byteOffset":4488,
			"target":34963
		},
		{
			"buffer":0,
			"byteLength":312,
			"byteOffset":4584,
			"target":34962
		},
		{
			"buffer":0,
			"byteLength":312,
			"byteOffset":4896,
			"target":34962
		},
		{
			"buffer":0,
			"byteLength":208,
			"byteOffset":5208,
			"target":34962
		},
		{
			"buffer":0,
			"byteLength":96,
			"byteOffset":5416,
			"target":34963
		},
		{
			"buffer":0,
			"byteLength":432,
			"byteOffset":5512,
			"target":34962
		},
		{
			"buffer":0,
			"byteLength":432,
			"byteOffset":5944,
			"target":34962
		},
		{
			"buffer":0,
			"byteLength":288,
			"byteOffset":6376,
			"target":34962
		},
		{
			"buffer":0,
			"byteLength":144,
			"byteOffset":6664,
			"target":34963
		},
		{
			"buffer":0,
			"byteLength":552,
			"byteOffset":6808,
			"target":34962
		},
		{
			"buffer":0,
			"byteLength":552,
			"byteOffset":7360,
			"target":34962
		},
		{
			"buffer":0,
			"byteLength":368,
			"byteOffset":7912,
			"target":34962
		},
		{
			"buffer":0,
			"byteLength":192,
			"byteOffset":8280,
			"target":34963
		},
		{
			"buffer":0,
			"byteLength":432,
			"byteOffset":8472,
			"target":34962
		},
		{
			"buffer":0,
			"byteLength":432,
			"byteOffset":8904,
			"target":34962
		},
		{
			"buffer":0,
			"byteLength":288,
			"byteOffset":9336,
			"target":34962
		},
		{
			"buffer":0,
			"byteLength":144,
			"byteOffset":9624,
			"target":34963
		},
		{
			"buffer":0,
			"byteLength":384,
			"byteOffset":9768,
			"target":34962
		},
		{
			"buffer":0,
			"byteLength":384,
			"byteOffset":10152,
			"target":34962
		},
		{
			"buffer":0,
			"byteLength":256,
			"byteOffset":10536,
			"target":34962
		},
		{
			"buffer":0,
			"byteLength":132,
			"byteOffset":10792,
			"target":34963
		},
		{
			"buffer":0,
			"byteLength":312,
			"byteOffset":10924,
			"target":34962
		},
		{
			"buffer":0,
			"byteLength":312,
			"byteOffset":11236,
			"target":34962
		},
		{
			"buffer":0,
			"byteLength":208,
			"byteOffset":11548,
			"target":34962
		},
		{
			"buffer":0,
			"byteLength":96,
			"byteOffset":11756,
			"target":34963
		},
		{
			"buffer":0,
			"byteLength":216,
			"byteOffset":11852,
			"target":34962
		},
		{
			"buffer":0,
			"byteLength":216,
			"byteOffset":12068,
			"target":34962
		},
		{
			"buffer":0,
			"byteLength":144,
			"byteOffset":12284,
			"target":34962
		},
		{
			"buffer":0,
			"byteLength":72,
			"byteOffset":12428,
			"target":34963
		},
		{
			"buffer":0,
			"byteLength":384,
			"byteOffset":12500,
			"target":34962
		},
		{
			"buffer":0,
			"byteLength":384,
			"byteOffset":12884,
			"target":34962
		},
		{
			"buffer":0,
			"byteLength":256,
			"byteOffset":13268,
			"target":34962
		},
		{
			"buffer":0,
			"byteLength":132,
			"byteOffset":13524,
			"target":34963
		},
		{
			"buffer":0,
			"byteLength":264,
			"byteOffset":13656,
			"target":34962
		},
		{
			"buffer":0,
			"byteLength":264,
			"byteOffset":13920,
			"target":34962
		},
		{
			"buffer":0,
			"byteLength":176,
			"byteOffset":14184,
			"target":34962
		},
		{
			"buffer":0,
			"byteLength":84,
			"byteOffset":14360,
			"target":34963
		},
		{
			"buffer":0,
			"byteLength":264,
			"byteOffset":14444,
			"target":34962
		},
		{
			"buffer":0,
			"byteLength":264,
			"byteOffset":14708,
			"target":34962
		},
		{
			"buffer":0,
			"byteLength":176,
			"byteOffset":14972,
			"target":34962
		},
		{
			"buffer":0,
			"byteLength":84,
			"byteOffset":15148,
			"target":34963
		},
		{
			"buffer":0,
			"byteLength":384,
			"byteOffset":15232,
			"target":34962
		},
		{
			"buffer":0,
			"byteLength":384,
			"byteOffset":15616,
			"target":34962
		},
		{
			"buffer":0,
			"byteLength":256,
			"byteOffset":16000,
			"target":34962
		},
		{
			"buffer":0,
			"byteLength":132,
			"byteOffset":16256,
			"target":34963
		},
		{
			"buffer":0,
			"byteLength":264,
			"byteOffset":16388,
			"target":34962
		},
		{
			"buffer":0,
			"byteLength":264,
			"byteOffset":16652,
			"target":34962
		},
		{
			"buffer":0,
			"byteLength":176,
			"byteOffset":16916,
			"target":34962
		},
		{
			"buffer":0,
			"byteLength":84,
			"byteOffset":17092,
			"target":34963
		},
		{
			"buffer":0,
			"byteLength":1368,
			"byteOffset":17176,
			"target":34962
		},
		{
			"buffer":0,
			"byteLength":1368,
			"byteOffset":18544,
			"target":34962
		},
		{
			"buffer":0,
			"byteLength":912,
			"byteOffset":19912,
			"target":34962
		},
		{
			"buffer":0,
			"byteLength":384,
			"byteOffset":20824,
			"target":34963
		},
		{
			"buffer":0,
			"byteLength":1584,
			"byteOffset":21208,
			"target":34962
		},
		{
			"buffer":0,
			"byteLength":1584,
			"byteOffset":22792,
			"target":34962
		},
		{
			"buffer":0,
			"byteLength":1056,
			"byteOffset":24376,
			"target":34962
		},
		{
			"buffer":0,
			"byteLength":468,
			"byteOffset":25432,
			"target":34963
		},
		{
			"buffer":0,
			"byteLength":864,
			"byteOffset":25900,
			"target":34962
		},
		{
			"buffer":0,
			"byteLength":864,
			"byteOffset":26764,
			"target":34962
		},
		{
			"buffer":0,
			"byteLength":576,
			"byteOffset":27628,
			"target":34962
		},
		{
			"buffer":0,
			"byteLength":216,
			"byteOffset":28204,
			"target":34963
		},
		{
			"buffer":0,
			"byteLength":1152,
			"byteOffset":28420,
			"target":34962
		},
		{
			"buffer":0,
			"byteLength":1152,
			"byteOffset":29572,
			"target":34962
		},
		{
			"buffer":0,
			"byteLength":768,
			"byteOffset":30724,
			"target":34962
		},
		{
			"buffer":0,
			"byteLength":312,
			"byteOffset":31492,
			"target":34963
		},
		{
			"buffer":0,
			"byteLength":1584,
			"byteOffset":31804,
			"target":34962
		},
		{
			"buffer":0,
			"byteLength":1584,
			"byteOffset":33388,
			"target":34962
		},
		{
			"buffer":0,
			"byteLength":1056,
			"byteOffset":34972,
			"target":34962
		},
		{
			"buffer":0,
			"byteLength":864,
			"byteOffset":36028,
			"target":34962
		},
		{
			"buffer":0,
			"byteLength":864,
			"byteOffset":36892,
			"target":34962
		},
		{
			"buffer":0,
			"byteLength":576,
			"byteOffset":37756,
			"target":34962
		},
		{
			"buffer":0,
			"byteLength":1152,
			"byteOffset":38332,
			"target":34962
		},
		{
			"buffer":0,
			"byteLength":1152,
			"byteOffset":39484,
			"target":34962
		},
		{
			"buffer":0,
			"byteLength":768,
			"byteOffset":40636,
			"target":34962
		},
		{
			"buffer":0,
			"byteLength":312,
			"byteOffset":41404,
			"target":34963
		},
		{
			"buffer":0,
			"byteLength":1584,
			"byteOffset":41716,
			"target":34962
		},
		{
			"buffer":0,
			"byteLength":1584,
			"byteOffset":43300,
			"target":34962
		},
		{
			"buffer":0,
			"byteLength":1056,
			"byteOffset":44884,
			"target":34962
		},
		{
			"buffer":0,
			"byteLength":864,
			"byteOffset":45940,
			"target":34962
		},
		{
			"buffer":0,
			"byteLength":864,
			"byteOffset":46804,
			"target":34962
		},
		{
			"buffer":0,
			"byteLength":576,
			"byteOffset":47668,
			"target":34962
		},
		{
			"buffer":0,
			"byteLength":144,
			"byteOffset":48244,
			"target":34962
		},
		{
			"buffer":0,
			"byteLength":144,
			"byteOffset":48388,
			"target":34962
		},
		{
			"buffer":0,
			"byteLength":96,
			"byteOffset":48532,
			"target":34962
		},
		{
			"buffer":0,
			"byteLength":48,
			"byteOffset":48628,
			"target":34963
		},
		{
			"buffer":0,
			"byteLength":96,
			"byteOffset":48676,
			"target":34962
		},
		{
			"buffer":0,
			"byteLength":96,
			"byteOffset":48772,
			"target":34962
		},
		{
			"buffer":0,
			"byteLength":64,
			"byteOffset":48868,
			"target":34962
		},
		{
			"buffer":0,
			"byteLength":128,
			"byteOffset":48932,
			"target":34962
		},
		{
			"buffer":0,
			"byteLength":24,
			"byteOffset":49060,
			"target":34963
		},
		{
			"buffer":0,
			"byteLength":96,
			"byteOffset":49084,
			"target":34962
		},
		{
			"buffer":0,
			"byteLength":96,
			"byteOffset":49180,
			"target":34962
		},
		{
			"buffer":0,
			"byteLength":64,
			"byteOffset":49276,
			"target":34962
		},
		{
			"buffer":0,
			"byteLength":128,
			"byteOffset":49340,
			"target":34962
		},
		{
			"buffer":0,
			"byteLength":24,
			"byteOffset":49468,
			"target":34963
		},
		{
			"buffer":0,
			"byteLength":192,
			"byteOffset":49492,
			"target":34962
		},
		{
			"buffer":0,
			"byteLength":192,
			"byteOffset":49684,
			"target":34962
		},
		{
			"buffer":0,
			"byteLength":128,
			"byteOffset":49876,
			"target":34962
		},
		{
			"buffer":0,
			"byteLength":256,
			"byteOffset":50004,
			"target":34962
		},
		{
			"buffer":0,
			"byteLength":48,
			"byteOffset":50260,
			"target":34963
		},
		{
			"buffer":0,
			"byteLength":552,
			"byteOffset":50308,
			"target":34962
		},
		{
			"buffer":0,
			"byteLength":552,
			"byteOffset":50860,
			"target":34962
		},
		{
			"buffer":0,
			"byteLength":368,
			"byteOffset":51412,
			"target":34962
		},
		{
			"buffer":0,
			"byteLength":736,
			"byteOffset":51780,
			"target":34962
		},
		{
			"buffer":0,
			"byteLength":168,
			"byteOffset":52516,
			"target":34963
		},
		{
			"buffer":0,
			"byteLength":288,
			"byteOffset":52684,
			"target":34962
		},
		{
			"buffer":0,
			"byteLength":288,
			"byteOffset":52972,
			"target":34962
		},
		{
			"buffer":0,
			"byteLength":192,
			"byteOffset":53260,
			"target":34962
		},
		{
			"buffer":0,
			"byteLength":384,
			"byteOffset":53452,
			"target":34962
		},
		{
			"buffer":0,
			"byteLength":72,
			"byteOffset":53836,
			"target":34963
		},
		{
			"buffer":0,
			"byteLength":72,
			"byteOffset":53908,
			"target":34962
		},
		{
			"buffer":0,
			"byteLength":72,
			"byteOffset":53980,
			"target":34962
		},
		{
			"buffer":0,
			"byteLength":48,
			"byteOffset":54052,
			"target":34962
		},
		{
			"buffer":0,
			"byteLength":24,
			"byteOffset":54100,
			"target":34963
		}
	],
	"samplers":[
		{
			"magFilter":9729,
			"minFilter":9987
		}
	],
	"buffers":[
		{
			"byteLength":54124,
			"uri":"OnlyRoomsDEVELOP-8420c0301d7304cb55c4d24eb9db7130.bin"
		}
	]
}
