{
	"asset":{
		"generator":"Khronos glTF Blender I/O v4.4.55",
		"version":"2.0"
	},
	"scene":0,
	"scenes":[
		{
			"name":"Scene",
			"nodes":[
				0,
				1,
				2,
				3,
				4,
				5
			]
		}
	],
	"nodes":[
		{
			"mesh":0,
			"name":"Cube",
			"scale":[
				0.3089214563369751,
				0.3089214563369751,
				0.3089214563369751
			],
			"translation":[
				0,
				0,
				-0.15622520446777344
			]
		},
		{
			"mesh":1,
			"name":"Cube.001",
			"scale":[
				0.2841416001319885,
				0.2841416001319885,
				0.2841416001319885
			],
			"translation":[
				-0.6699709296226501,
				0.28257280588150024,
				-0.15622520446777344
			]
		},
		{
			"mesh":2,
			"name":"Cube.002",
			"scale":[
				-0.2640061378479004,
				-0.2640061378479004,
				-0.2232716679573059
			],
			"translation":[
				-0.858683705329895,
				0.5910397171974182,
				-1.3395719528198242
			]
		},
		{
			"mesh":3,
			"name":"Cube.003",
			"scale":[
				0.17395268380641937,
				0.04075120761990547,
				0.08993905782699585
			],
			"translation":[
				0.02658112160861492,
				0,
				-1.273306131362915
			]
		},
		{
			"mesh":4,
			"name":"Cube.004",
			"scale":[
				0.028483470901846886,
				0.028483470901846886,
				0.028483470901846886
			],
			"translation":[
				0,
				0.02328670024871826,
				2.3035800457000732
			]
		},
		{
			"mesh":5,
			"name":"Plane",
			"translation":[
				0,
				0,
				-3.999983549118042
			]
		}
	],
	"materials":[
		{
			"doubleSided":true,
			"name":"Material.001",
			"pbrMetallicRoughness":{
				"baseColorTexture":{
					"index":0
				},
				"metallicFactor":0,
				"roughnessFactor":0.5
			}
		},
		{
			"doubleSided":true,
			"name":"Material.002",
			"pbrMetallicRoughness":{
				"baseColorTexture":{
					"index":1
				},
				"metallicFactor":0,
				"roughnessFactor":0.5
			}
		},
		{
			"doubleSided":true,
			"name":"Material.003",
			"pbrMetallicRoughness":{
				"baseColorFactor":[
					0.001318510971032083,
					0.001318510971032083,
					0.001318510971032083,
					1
				],
				"metallicFactor":0,
				"roughnessFactor":0.5
			}
		},
		{
			"doubleSided":true,
			"name":"Material.004",
			"pbrMetallicRoughness":{
				"baseColorTexture":{
					"index":2
				},
				"metallicFactor":0,
				"roughnessFactor":0.5
			}
		},
		{
			"doubleSided":true,
			"name":"Material.005",
			"pbrMetallicRoughness":{
				"baseColorTexture":{
					"index":3
				},
				"metallicFactor":0,
				"roughnessFactor":0.5
			}
		},
		{
			"doubleSided":true,
			"name":"Material.006",
			"pbrMetallicRoughness":{
				"baseColorTexture":{
					"index":4
				},
				"metallicFactor":0,
				"roughnessFactor":0.5
			}
		},
		{
			"doubleSided":true,
			"name":"Material.007",
			"pbrMetallicRoughness":{
				"baseColorTexture":{
					"index":5
				},
				"metallicFactor":0,
				"roughnessFactor":0.5
			}
		}
	],
	"meshes":[
		{
			"name":"Cube.001",
			"primitives":[
				{
					"attributes":{
						"POSITION":0,
						"NORMAL":1,
						"TEXCOORD_0":2
					},
					"indices":3,
					"material":0
				}
			]
		},
		{
			"name":"Cube.002",
			"primitives":[
				{
					"attributes":{
						"POSITION":4,
						"NORMAL":5,
						"TEXCOORD_0":6,
						"TANGENT":7
					},
					"indices":8,
					"material":1
				},
				{
					"attributes":{
						"POSITION":9,
						"NORMAL":10,
						"TEXCOORD_0":11,
						"TANGENT":12
					},
					"indices":13,
					"material":2
				}
			]
		},
		{
			"name":"Cube.003",
			"primitives":[
				{
					"attributes":{
						"POSITION":14,
						"NORMAL":15,
						"TEXCOORD_0":16,
						"TANGENT":17
					},
					"indices":18,
					"material":3
				}
			]
		},
		{
			"name":"Cube.004",
			"primitives":[
				{
					"attributes":{
						"POSITION":19,
						"NORMAL":20,
						"TEXCOORD_0":21
					},
					"indices":22,
					"material":1
				}
			]
		},
		{
			"name":"Cube.005",
			"primitives":[
				{
					"attributes":{
						"POSITION":23,
						"NORMAL":24,
						"TEXCOORD_0":25
					},
					"indices":26,
					"material":4
				},
				{
					"attributes":{
						"POSITION":27,
						"NORMAL":28,
						"TEXCOORD_0":29
					},
					"indices":30,
					"material":5
				}
			]
		},
		{
			"name":"Plane",
			"primitives":[
				{
					"attributes":{
						"POSITION":31,
						"NORMAL":32,
						"TEXCOORD_0":33,
						"TANGENT":34
					},
					"indices":35,
					"material":6
				}
			]
		}
	],
	"textures":[
		{
			"sampler":0,
			"source":0
		},
		{
			"sampler":0,
			"source":1
		},
		{
			"sampler":0,
			"source":2
		},
		{
			"sampler":0,
			"source":3
		},
		{
			"sampler":0,
			"source":4
		},
		{
			"sampler":0,
			"source":5
		}
	],
	"images":[
		{
			"mimeType":"image/png",
			"name":"Texture1.png",
			"uri":"../../assets/tech/pc/textures/Texture1.png"
		},
		{
			"mimeType":"image/png",
			"name":"Texture2.png",
			"uri":"../../assets/tech/pc/textures/Texture2.png"
		},
		{
			"mimeType":"image/png",
			"name":"Texture3.png",
			"uri":"../../assets/tech/pc/textures/Texture3.png"
		},
		{
			"mimeType":"image/jpeg",
			"name":"metal_bare_0062_01.jpg",
			"uri":"../../assets/tech/pc/textures/metal_bare_0062_01.jpg"
		},
		{
			"mimeType":"image/jpeg",
			"name":"plastic_0030_01.jpg",
			"uri":"../../assets/tech/pc/textures/plastic_0030_01.jpg"
		},
		{
			"mimeType":"image/png",
			"name":"Texture4.png",
			"uri":"../../assets/tech/pc/textures/Texture4.png"
		}
	],
	"accessors":[
		{
			"bufferView":0,
			"componentType":5126,
			"count":289,
			"max":[
				0.9999999403953552,
				0.2395542860031128,
				2.3775594234466553
			],
			"min":[
				-0.9999999403953552,
				-0.06084030494093895,
				-2.3775594234466553
			],
			"type":"VEC3"
		},
		{
			"bufferView":1,
			"componentType":5126,
			"count":289,
			"type":"VEC3"
		},
		{
			"bufferView":2,
			"componentType":5126,
			"count":289,
			"type":"VEC2"
		},
		{
			"bufferView":3,
			"componentType":5123,
			"count":738,
			"type":"SCALAR"
		},
		{
			"bufferView":4,
			"componentType":5126,
			"count":98,
			"max":[
				1,
				2.4836363792419434,
				1.9433027505874634
			],
			"min":[
				-2.4867305755615234,
				-0.5745566487312317,
				-2.128950834274292
			],
			"type":"VEC3"
		},
		{
			"bufferView":5,
			"componentType":5126,
			"count":98,
			"type":"VEC3"
		},
		{
			"bufferView":6,
			"componentType":5126,
			"count":98,
			"type":"VEC2"
		},
		{
			"bufferView":7,
			"componentType":5126,
			"count":98,
			"type":"VEC4"
		},
		{
			"bufferView":8,
			"componentType":5123,
			"count":192,
			"type":"SCALAR"
		},
		{
			"bufferView":9,
			"componentType":5126,
			"count":6,
			"max":[
				0.9343003034591675,
				2.2804059982299805,
				1.740072250366211
			],
			"min":[
				0.9343003034591675,
				-0.371326208114624,
				-1.925720453262329
			],
			"type":"VEC3"
		},
		{
			"bufferView":10,
			"componentType":5126,
			"count":6,
			"type":"VEC3"
		},
		{
			"bufferView":11,
			"componentType":5126,
			"count":6,
			"type":"VEC2"
		},
		{
			"bufferView":12,
			"componentType":5126,
			"count":6,
			"type":"VEC4"
		},
		{
			"bufferView":13,
			"componentType":5123,
			"count":12,
			"type":"SCALAR"
		},
		{
			"bufferView":14,
			"componentType":5126,
			"count":42,
			"max":[
				1.7872081995010376,
				2.0358004570007324,
				1
			],
			"min":[
				-1.9322203397750854,
				-2.0150842666625977,
				-1
			],
			"type":"VEC3"
		},
		{
			"bufferView":15,
			"componentType":5126,
			"count":42,
			"type":"VEC3"
		},
		{
			"bufferView":16,
			"componentType":5126,
			"count":42,
			"type":"VEC2"
		},
		{
			"bufferView":17,
			"componentType":5126,
			"count":42,
			"type":"VEC4"
		},
		{
			"bufferView":18,
			"componentType":5123,
			"count":96,
			"type":"SCALAR"
		},
		{
			"bufferView":19,
			"componentType":5126,
			"count":155,
			"max":[
				1,
				1,
				1.0000001192092896
			],
			"min":[
				-1.0206347703933716,
				-1,
				-1.0000001192092896
			],
			"type":"VEC3"
		},
		{
			"bufferView":20,
			"componentType":5126,
			"count":155,
			"type":"VEC3"
		},
		{
			"bufferView":21,
			"componentType":5126,
			"count":155,
			"type":"VEC2"
		},
		{
			"bufferView":22,
			"componentType":5123,
			"count":276,
			"type":"SCALAR"
		},
		{
			"bufferView":23,
			"componentType":5126,
			"count":456,
			"max":[
				1.0623154640197754,
				72.98702239990234,
				1
			],
			"min":[
				-37.570587158203125,
				-1,
				-35.577659606933594
			],
			"type":"VEC3"
		},
		{
			"bufferView":24,
			"componentType":5126,
			"count":456,
			"type":"VEC3"
		},
		{
			"bufferView":25,
			"componentType":5126,
			"count":456,
			"type":"VEC2"
		},
		{
			"bufferView":26,
			"componentType":5123,
			"count":912,
			"type":"SCALAR"
		},
		{
			"bufferView":27,
			"componentType":5126,
			"count":36,
			"max":[
				1.0623154640197754,
				70.93113708496094,
				-0.9999999403953552
			],
			"min":[
				-37.567081451416016,
				31.46570587158203,
				-33.7908935546875
			],
			"type":"VEC3"
		},
		{
			"bufferView":28,
			"componentType":5126,
			"count":36,
			"type":"VEC3"
		},
		{
			"bufferView":29,
			"componentType":5126,
			"count":36,
			"type":"VEC2"
		},
		{
			"bufferView":30,
			"componentType":5123,
			"count":60,
			"type":"SCALAR"
		},
		{
			"bufferView":31,
			"componentType":5126,
			"count":136,
			"max":[
				0.0525587797164917,
				0.15892016887664795,
				1.8270963430404663
			],
			"min":[
				-1.0505539178848267,
				0,
				0.9854356050491333
			],
			"type":"VEC3"
		},
		{
			"bufferView":32,
			"componentType":5126,
			"count":136,
			"type":"VEC3"
		},
		{
			"bufferView":33,
			"componentType":5126,
			"count":136,
			"type":"VEC2"
		},
		{
			"bufferView":34,
			"componentType":5126,
			"count":136,
			"type":"VEC4"
		},
		{
			"bufferView":35,
			"componentType":5123,
			"count":348,
			"type":"SCALAR"
		}
	],
	"bufferViews":[
		{
			"buffer":0,
			"byteLength":3468,
			"byteOffset":0,
			"target":34962
		},
		{
			"buffer":0,
			"byteLength":3468,
			"byteOffset":3468,
			"target":34962
		},
		{
			"buffer":0,
			"byteLength":2312,
			"byteOffset":6936,
			"target":34962
		},
		{
			"buffer":0,
			"byteLength":1476,
			"byteOffset":9248,
			"target":34963
		},
		{
			"buffer":0,
			"byteLength":1176,
			"byteOffset":10724,
			"target":34962
		},
		{
			"buffer":0,
			"byteLength":1176,
			"byteOffset":11900,
			"target":34962
		},
		{
			"buffer":0,
			"byteLength":784,
			"byteOffset":13076,
			"target":34962
		},
		{
			"buffer":0,
			"byteLength":1568,
			"byteOffset":13860,
			"target":34962
		},
		{
			"buffer":0,
			"byteLength":384,
			"byteOffset":15428,
			"target":34963
		},
		{
			"buffer":0,
			"byteLength":72,
			"byteOffset":15812,
			"target":34962
		},
		{
			"buffer":0,
			"byteLength":72,
			"byteOffset":15884,
			"target":34962
		},
		{
			"buffer":0,
			"byteLength":48,
			"byteOffset":15956,
			"target":34962
		},
		{
			"buffer":0,
			"byteLength":96,
			"byteOffset":16004,
			"target":34962
		},
		{
			"buffer":0,
			"byteLength":24,
			"byteOffset":16100,
			"target":34963
		},
		{
			"buffer":0,
			"byteLength":504,
			"byteOffset":16124,
			"target":34962
		},
		{
			"buffer":0,
			"byteLength":504,
			"byteOffset":16628,
			"target":34962
		},
		{
			"buffer":0,
			"byteLength":336,
			"byteOffset":17132,
			"target":34962
		},
		{
			"buffer":0,
			"byteLength":672,
			"byteOffset":17468,
			"target":34962
		},
		{
			"buffer":0,
			"byteLength":192,
			"byteOffset":18140,
			"target":34963
		},
		{
			"buffer":0,
			"byteLength":1860,
			"byteOffset":18332,
			"target":34962
		},
		{
			"buffer":0,
			"byteLength":1860,
			"byteOffset":20192,
			"target":34962
		},
		{
			"buffer":0,
			"byteLength":1240,
			"byteOffset":22052,
			"target":34962
		},
		{
			"buffer":0,
			"byteLength":552,
			"byteOffset":23292,
			"target":34963
		},
		{
			"buffer":0,
			"byteLength":5472,
			"byteOffset":23844,
			"target":34962
		},
		{
			"buffer":0,
			"byteLength":5472,
			"byteOffset":29316,
			"target":34962
		},
		{
			"buffer":0,
			"byteLength":3648,
			"byteOffset":34788,
			"target":34962
		},
		{
			"buffer":0,
			"byteLength":1824,
			"byteOffset":38436,
			"target":34963
		},
		{
			"buffer":0,
			"byteLength":432,
			"byteOffset":40260,
			"target":34962
		},
		{
			"buffer":0,
			"byteLength":432,
			"byteOffset":40692,
			"target":34962
		},
		{
			"buffer":0,
			"byteLength":288,
			"byteOffset":41124,
			"target":34962
		},
		{
			"buffer":0,
			"byteLength":120,
			"byteOffset":41412,
			"target":34963
		},
		{
			"buffer":0,
			"byteLength":1632,
			"byteOffset":41532,
			"target":34962
		},
		{
			"buffer":0,
			"byteLength":1632,
			"byteOffset":43164,
			"target":34962
		},
		{
			"buffer":0,
			"byteLength":1088,
			"byteOffset":44796,
			"target":34962
		},
		{
			"buffer":0,
			"byteLength":2176,
			"byteOffset":45884,
			"target":34962
		},
		{
			"buffer":0,
			"byteLength":696,
			"byteOffset":48060,
			"target":34963
		}
	],
	"samplers":[
		{
			"magFilter":9729,
			"minFilter":9987
		}
	],
	"buffers":[
		{
			"byteLength":48756,
			"uri":"pc-a20d36fbd58dea69ac40774d7e450c81.bin"
		}
	]
}
