{
	"asset":{
		"generator":"Khronos glTF Blender I/O v4.5.47",
		"version":"2.0"
	},
	"extensionsUsed":[
		"KHR_materials_specular"
	],
	"scene":0,
	"scenes":[
		{
			"extras":{
				"sprytile_data":{
					"auto_reload":false,
					"world_pixels":32
				},
				"automirror":{
					"axis":2
				}
			},
			"name":"Scene",
			"nodes":[
				0
			]
		}
	],
	"nodes":[
		{
			"mesh":0,
			"name":"LoadingPort_Mesh"
		}
	],
	"materials":[
		{
			"doubleSided":true,
			"extensions":{
				"KHR_materials_specular":{
					"specularFactor":0
				}
			},
			"name":"Shotgun_01_MI",
			"pbrMetallicRoughness":{
				"baseColorTexture":{
					"index":0
				},
				"metallicFactor":0
			}
		}
	],
	"meshes":[
		{
			"name":"Cube.003",
			"primitives":[
				{
					"attributes":{
						"POSITION":0,
						"NORMAL":1,
						"TEXCOORD_0":2
					},
					"indices":3,
					"material":0
				}
			]
		}
	],
	"textures":[
		{
			"sampler":0,
			"source":0
		}
	],
	"images":[
		{
			"mimeType":"image/png",
			"name":"Shotgun_01_Albedo.png",
			"uri":"../../assets/guns/textures/Shotgun_01_Albedo.png"
		}
	],
	"accessors":[
		{
			"bufferView":0,
			"componentType":5126,
			"count":1511,
			"max":[
				64.46690368652344,
				10.517634391784668,
				2.289768934249878
			],
			"min":[
				-29.778812408447266,
				-6.323728084564209,
				-2.289768934249878
			],
			"type":"VEC3"
		},
		{
			"bufferView":1,
			"componentType":5126,
			"count":1511,
			"type":"VEC3"
		},
		{
			"bufferView":2,
			"componentType":5126,
			"count":1511,
			"type":"VEC2"
		},
		{
			"bufferView":3,
			"componentType":5123,
			"count":4728,
			"type":"SCALAR"
		}
	],
	"bufferViews":[
		{
			"buffer":0,
			"byteLength":18132,
			"byteOffset":0,
			"target":34962
		},
		{
			"buffer":0,
			"byteLength":18132,
			"byteOffset":18132,
			"target":34962
		},
		{
			"buffer":0,
			"byteLength":12088,
			"byteOffset":36264,
			"target":34962
		},
		{
			"buffer":0,
			"byteLength":9456,
			"byteOffset":48352,
			"target":34963
		}
	],
	"samplers":[
		{
			"magFilter":9728,
			"minFilter":9984
		}
	],
	"buffers":[
		{
			"byteLength":57808,
			"uri":"Shotgun_01-e49c611cf1f2ba047a12d35cf426e9c0.bin"
		}
	]
}
